# xmcd
#
# Track frame offsets:
#	150
#	18234
#	34268
#	53900
#	70541
#	87893
#	103293
#	121946
#	142758
#	160842
#	176876
#	196508
#	213149
#	230501
#	245907
#	264560
#
# Disc length: 3802 seconds
#
# Revision: 1
# Processed by: cddbd v1.5.2PL0 Copyright (c) Steve Scherf et al.
# Submitted via: audiograbber 1.83.01
#
DISCID=d60ed810
DTITLE=Various Artist - SDK9057-Today's Hot Country Female-Feb 2007
DYEAR=1900
DGENRE=Karaoke
TTITLE0=Dixie Chicks - Not Ready To Make Nice
TTITLE1=Sara Evans - Cheatin'
TTITLE2=Carrie Underwood - Inside Your Heaven
TTITLE3=Faith Hill - The Lucky One
TTITLE4=Sara Evans - Suds In The Bucket
TTITLE5=Carrie Underwood - Before He Cheats
TTITLE6=Sara Evans - A Real Fine Place To Start
TTITLE7=Carrie Underwood - Wasted
TTITLE8=Dixie Chicks - Not Ready To Make Nice
TTITLE9=Sara Evans - Cheatin'
TTITLE10=Carrie Underwood - Inside Your Heaven
TTITLE11=Faith Hill - The Lucky One
TTITLE12=Sara Evans - Suds In The Bucket
TTITLE13=Carrie Underwood - Before He Cheats
TTITLE14=Sara Evans - A Real Fine Place To Start
TTITLE15=Carrie Underwood - Wasted
EXTD=
EXTT0=
EXTT1=
EXTT2=
EXTT3=
EXTT4=
EXTT5=
EXTT6=
EXTT7=
EXTT8=
EXTT9=
EXTT10=
EXTT11=
EXTT12=
EXTT13=
EXTT14=
EXTT15=
PLAYORDER=
